<?xml version="1.0" standalone="no"?>
<!DOCTYPE svg PUBLIC "-//W3C//DTD SVG 20010904//EN"
 "http://www.w3.org/TR/2001/REC-SVG-20010904/DTD/svg10.dtd">
<svg version="1.0" xmlns="http://www.w3.org/2000/svg"
 width="512.000000pt" height="512.000000pt" viewBox="0 0 512.000000 512.000000"
 preserveAspectRatio="xMidYMid meet">
<metadata>
Created by potrace 1.11, written by Peter Selinger 2001-2013
</metadata>
<g transform="translate(0.000000,512.000000) scale(0.100000,-0.100000)"
fill="#000000" stroke="none">
<path d="M2379 4946 c-2 -2 -35 -7 -74 -10 -721 -70 -1425 -522 -1797 -1156
-60 -102 -140 -260 -165 -325 -18 -50 -73 -205 -79 -225 -16 -55 -63 -274 -68
-315 -4 -27 -10 -81 -15 -120 -9 -67 -7 -443 2 -495 3 -14 8 -48 11 -75 65
-489 310 -980 666 -1335 342 -342 786 -581 1245 -670 28 -6 61 -12 74 -15 77
-15 281 -30 381 -29 81 1 252 12 288 18 9 2 44 7 77 12 33 4 62 8 65 9 3 1 23
5 45 9 296 57 634 201 870 370 251 179 416 341 584 571 72 98 70 95 135 206
240 408 350 893 312 1384 -4 50 -11 115 -16 145 -5 30 -11 71 -14 90 -26 176
-109 425 -213 635 -45 90 -142 257 -175 300 -166 216 -254 313 -401 440 -244
211 -545 381 -842 474 -104 33 -301 76 -395 86 -30 4 -66 9 -80 12 -28 6 -416
14 -421 9z m491 -221 c14 -3 43 -8 65 -11 118 -17 336 -80 465 -134 139 -58
311 -155 440 -248 48 -35 47 -34 130 -101 107 -87 284 -278 356 -383 16 -24
32 -45 35 -48 17 -14 139 -228 181 -319 43 -90 114 -288 131 -361 l6 -26 -132
4 c-73 2 -543 4 -1045 5 l-913 1 6 76 c3 41 8 95 10 120 6 60 13 130 20 215 3
39 8 90 10 115 5 50 12 137 20 233 11 131 20 234 30 337 2 19 6 71 10 115 3
44 8 91 10 105 2 14 7 66 11 115 3 50 8 101 9 115 2 14 3 40 4 58 l1 33 58 -6
c31 -3 68 -8 82 -10z m-545 -18 c-3 -12 -7 -33 -9 -47 -2 -14 -13 -77 -25
-140 -11 -63 -23 -128 -26 -145 -2 -16 -7 -40 -9 -51 -2 -12 -7 -37 -10 -55
-3 -19 -13 -72 -21 -119 -32 -176 -45 -246 -50 -275 -3 -16 -10 -52 -15 -80
-5 -27 -12 -63 -15 -80 -2 -16 -25 -142 -50 -280 -24 -137 -47 -265 -50 -284
-3 -19 -8 -38 -11 -43 -3 -4 -153 -8 -333 -8 l-328 0 34 123 c19 67 51 185 72
262 22 77 87 316 146 530 59 215 120 435 135 490 l27 100 64 23 c79 29 277 79
344 88 28 3 51 7 53 8 1 2 20 3 42 4 37 2 40 0 35 -21z m-1024 -394 c-10 -27
-68 -178 -129 -338 -61 -159 -174 -454 -252 -655 -78 -201 -150 -387 -160
-415 -9 -27 -54 -147 -100 -265 -102 -268 -117 -307 -170 -450 -24 -63 -46
-119 -50 -123 -4 -5 -13 13 -19 40 -39 165 -50 283 -47 498 2 110 6 209 9 220
2 11 8 45 12 75 18 138 80 355 143 501 125 289 277 509 511 737 65 64 253 219
268 222 2 0 -6 -21 -16 -47z m3443 -1874 c-3 -57 -18 -184 -29 -239 -3 -13 -7
-42 -11 -64 -3 -22 -7 -43 -9 -47 -2 -3 -7 -21 -10 -40 -7 -41 -85 -276 -114
-341 -18 -43 -24 -48 -53 -49 -63 -1 -655 0 -946 2 -161 1 -289 6 -285 10 8 7
274 161 383 222 30 17 134 75 230 130 96 55 195 111 220 125 81 45 544 305
585 328 22 13 40 23 41 24 0 0 -1 -27 -2 -61z m-2840 -44 c-1 -11 -5 -36 -8
-55 -9 -44 -54 -296 -61 -335 -3 -16 -7 -41 -10 -55 -6 -30 -10 -51 -36 -200
-24 -137 -24 -136 -49 -275 -21 -116 -26 -144 -35 -185 -2 -14 -7 -40 -10 -57
-3 -18 -7 -46 -10 -63 -3 -16 -7 -45 -10 -62 -3 -18 -8 -40 -10 -48 -2 -8 -7
-31 -10 -50 -3 -19 -10 -57 -15 -85 -5 -27 -11 -63 -14 -80 -2 -16 -9 -52 -14
-80 -6 -27 -13 -70 -17 -95 -4 -24 -9 -48 -12 -52 -8 -15 -211 103 -328 191
-33 25 -64 49 -70 53 -60 45 -203 184 -270 264 l-54 63 39 148 c21 81 59 227
83 323 25 96 76 290 113 430 37 140 69 266 72 280 2 14 8 30 13 35 5 7 136 10
366 10 351 0 358 -1 357 -20z m1979 15 c-6 -6 -826 -487 -938 -550 -16 -9
-128 -74 -248 -144 -120 -70 -225 -130 -233 -133 -13 -5 -14 1 -10 33 3 22 8
68 12 104 3 36 8 73 10 83 1 9 6 50 9 90 3 39 8 86 9 102 14 133 19 172 21
186 2 8 6 52 10 97 4 44 8 89 10 99 2 10 4 24 4 31 1 11 128 13 677 11 372 -1
672 -5 667 -9z m145 -1465 c6 -6 -170 -142 -272 -210 -172 -113 -303 -178
-489 -240 -144 -48 -257 -76 -366 -91 -25 -3 -57 -8 -71 -11 -14 -3 -121 -7
-237 -9 l-212 -4 4 37 c3 21 7 81 10 133 13 237 16 288 20 325 1 22 3 50 4 62
l1 23 803 -6 c441 -3 803 -7 805 -9z"/>
<path d="M3400 3584 l0 -221 188 0 c103 -1 194 1 202 3 13 3 15 34 13 206 -1
112 -2 210 -2 218 -1 13 -30 15 -201 15 l-200 0 0 -221z"/>
</g>
</svg>
