<?xml version="1.0" encoding="UTF-8" standalone="no"?>
<svg
   xmlns:dc="http://purl.org/dc/elements/1.1/"
   xmlns:cc="http://creativecommons.org/ns#"
   xmlns:rdf="http://www.w3.org/1999/02/22-rdf-syntax-ns#"
   xmlns:svg="http://www.w3.org/2000/svg"
   xmlns="http://www.w3.org/2000/svg"
   xmlns:sodipodi="http://sodipodi.sourceforge.net/DTD/sodipodi-0.dtd"
   xmlns:inkscape="http://www.inkscape.org/namespaces/inkscape"
   width="820pt"
   height="120pt"
   viewBox="0 0 819.99999 120"
   version="1.1"
   id="svg2"
   inkscape:version="0.91 r13725"
   sodipodi:docname="infrastruktura-logo.svg">
  <metadata
     id="metadata47">
    <rdf:RDF>
      <cc:Work
         rdf:about="">
        <dc:format>image/svg+xml</dc:format>
        <dc:type
           rdf:resource="http://purl.org/dc/dcmitype/StillImage" />
        <dc:title></dc:title>
      </cc:Work>
    </rdf:RDF>
  </metadata>
  <defs
     id="defs45" />
  <sodipodi:namedview
     pagecolor="#ffffff"
     bordercolor="#666666"
     borderopacity="1"
     objecttolerance="10"
     gridtolerance="10"
     guidetolerance="10"
     inkscape:pageopacity="0"
     inkscape:pageshadow="2"
     inkscape:window-width="1920"
     inkscape:window-height="1017"
     id="namedview43"
     showgrid="false"
     inkscape:zoom="1"
     inkscape:cx="526.18126"
     inkscape:cy="-27.952499"
     inkscape:window-x="-8"
     inkscape:window-y="-8"
     inkscape:window-maximized="1"
     inkscape:current-layer="svg2" />
  <g
     id="surface1"
     transform="translate(-16.734136,-231.65223)">
    <path
       style="fill:#2347a3;fill-opacity:1;fill-rule:evenodd;stroke:none"
       d="m 164.47656,315.58594 0,-31.375 7.71875,0 0,11.9414 23.87891,0 0,-11.9414 7.64453,0 0,31.375 -7.64453,0 0,-13.19922 -23.87891,0 0,13.19922 z m 0,0"
       id="path5"
       inkscape:connector-curvature="0" />
    <path
       style="fill:#2347a3;fill-opacity:1;fill-rule:evenodd;stroke:none"
       d="m 213.60156,315.58594 0,-3.40625 22.98828,-22.33203 -20.6914,0 0,-5.63672 33.07422,0 0,3.11718 -23.4375,22.47266 23.4375,0 0,5.78516 z m 0,0"
       id="path7"
       inkscape:connector-curvature="0" />
    <path
       style="fill:#2347a3;fill-opacity:1;fill-rule:evenodd;stroke:none"
       d="m 283.625,315.58594 -5.62109,0 0,-29.72266 5.62109,0 z m 0,0"
       id="path9"
       inkscape:connector-curvature="0" />
    <path
       style="fill:#2347a3;fill-opacity:1;fill-rule:evenodd;stroke:none"
       d="m 299.73047,291.77344 0.3125,2.64062 0.14453,2.67578 0,18.4961 -5.19922,0 0,-29.72266 4.33203,-0.0508 21.83203,19.41406 c 0.6211,0.55078 1.23047,1.15235 1.82422,1.8086 0.59766,0.65625 1.17578,1.42187 1.75,2.29687 l -0.375,-2.70312 -0.13672,-2.83985 0,-17.92578 5.19922,0 0,29.72266 -3.86719,0 -22.30859,-19.72657 -2.02344,-2.0625 c -0.55078,-0.66015 -1.04297,-1.33593 -1.48437,-2.02343"
       id="path11"
       inkscape:connector-curvature="0" />
    <path
       style="fill:#2347a3;fill-opacity:1;fill-rule:evenodd;stroke:none"
       d="m 340.87109,315.58594 0,-29.72266 29.64844,0 0,4.49609 -24.02734,0 0,9.06641 13.5625,0 0,4.35547 -13.5625,0 0,11.80469 z m 0,0"
       id="path13"
       inkscape:connector-curvature="0" />
    <path
       style="fill:#2347a3;fill-opacity:1;fill-rule:evenodd;stroke:none"
       d="m 398.21484,290.21875 -15.85547,0 0,9.55859 15.85547,0 c 1.20703,0 2.0586,-0.21093 2.53516,-0.61718 0.44141,-0.4336 0.65234,-1.23047 0.65234,-2.39063 l 0,-3.54687 c 0,-1.09375 -0.23047,-1.86719 -0.6875,-2.32422 -0.45312,-0.45313 -1.29297,-0.67969 -2.5,-0.67969 m -21.47656,25.36719 0,-29.72266 23.96484,0 c 2.20313,0 3.78516,0.45313 4.77735,1.36719 0.98047,0.91015 1.47265,2.37109 1.47265,4.3789 l 0,6.62891 c 0,1.99219 -0.48046,3.43359 -1.45703,4.33203 -0.97656,0.89844 -2.5664,1.35156 -4.78125,1.35156 l -3.94531,0 13.12109,11.66407 -7.51562,0 -11.88281,-11.66407 -8.13282,0 0,11.66407 z m 0,0"
       id="path15"
       inkscape:connector-curvature="0" />
    <path
       style="fill:#2347a3;fill-opacity:1;fill-rule:evenodd;stroke:none"
       d="m 413.88281,315.58594 17.21485,-29.72266 5.14062,0 17.64063,29.72266 -6.1211,0.0117 -3.80469,-6.96485 -20.60156,0 -3.80469,6.97656 z m 11.79297,-11.2461 15.89844,0 -8.01172,-14.18359 z m 0,0"
       id="path17"
       inkscape:connector-curvature="0" />
    <path
       style="fill:#2347a3;fill-opacity:1;fill-rule:evenodd;stroke:none"
       d="m 486.75781,290.35937 -20.86719,0 0,7.58985 19.10938,0 c 2.78906,0 4.69531,0.48437 5.71094,1.46094 1.01562,0.96875 1.52343,2.82812 1.52343,5.57421 l 0,3.56641 c 0,2.74609 -0.48828,4.60547 -1.48046,5.57813 -0.97266,0.97265 -2.90235,1.45703 -5.75391,1.45703 l -18.13672,0 c -2.78516,0 -4.69922,-0.48047 -5.74219,-1.44141 -1.03515,-0.96094 -1.55859,-2.82812 -1.55859,-5.59766 l 0,-0.82031 5.13281,-1.0664 0,4.42968 22.48438,0 0,-8.35937 -19.1836,0 c -2.79297,0 -4.6875,-0.48438 -5.71093,-1.4375 -1.01563,-0.96094 -1.52344,-2.81641 -1.52344,-5.57813 l 0,-2.80859 c 0,-2.71484 0.49609,-4.5625 1.5039,-5.55469 1.00391,-0.99609 2.91797,-1.48828 5.73047,-1.48828 l 16.58203,0 c 2.72657,0 4.61719,0.48047 5.6875,1.44922 1.07422,0.96484 1.61719,2.64062 1.61719,5.02344 l 0,0.71484 -5.125,1.08984 z m 0,0"
       id="path19"
       inkscape:connector-curvature="0" />
    <path
       style="fill:#2347a3;fill-opacity:1;fill-rule:evenodd;stroke:none"
       d="m 517.26562,290.35937 0,25.22657 -5.62109,0 0,-25.22657 -14.05078,0 0,-4.49609 33.80078,0 0,4.49609 z m 0,0"
       id="path21"
       inkscape:connector-curvature="0" />
    <path
       style="fill:#2347a3;fill-opacity:1;fill-rule:evenodd;stroke:none"
       d="m 558.98828,290.21875 -15.85547,0 0,9.55859 15.85547,0 c 1.20313,0 2.05078,-0.21093 2.53125,-0.61718 0.42969,-0.4336 0.65234,-1.23047 0.65234,-2.39063 l 0,-3.54687 c 0,-1.09375 -0.22265,-1.86719 -0.6875,-2.32422 -0.45312,-0.45313 -1.29296,-0.67969 -2.49609,-0.67969 m -21.47656,25.36719 0,-29.72266 23.96484,0 c 2.19922,0 3.79297,0.45313 4.77735,1.36719 0.98437,0.91015 1.46484,2.37109 1.46484,4.3789 l 0,6.62891 c 0,1.99219 -0.48047,3.43359 -1.45313,4.33203 -0.96875,0.89844 -2.57031,1.35156 -4.78125,1.35156 l -3.94921,0 13.10937,11.66407 -7.50391,0 -11.875,-11.66407 -8.13281,0 0,11.66407 z m 0,0"
       id="path23"
       inkscape:connector-curvature="0" />
    <path
       style="fill:#2347a3;fill-opacity:1;fill-rule:evenodd;stroke:none"
       d="m 583.86719,285.86328 0,25.22656 21.85547,0 0,-25.22656 5.61718,0 0,22.69922 c 0,2.72266 -0.51172,4.57031 -1.52734,5.55078 -1.02344,0.98438 -2.94531,1.47266 -5.78906,1.47266 l -18.46485,0 c -2.82031,0 -4.73828,-0.48438 -5.77343,-1.45313 -1.02735,-0.96875 -1.54297,-2.82422 -1.54297,-5.57031 l 0,-22.69922 z m 0,0"
       id="path25"
       inkscape:connector-curvature="0" />
    <path
       style="fill:#2347a3;fill-opacity:1;fill-rule:evenodd;stroke:none"
       d="m 622.69922,315.58594 0,-29.72266 5.62109,0 0,12.64063 18.79688,-12.65625 7.8164,0.0156 -21.97656,14.32031 24.42969,15.40235 -9.21485,0 -19.85156,-13.34375 0,13.34375 z m 0,0"
       id="path27"
       inkscape:connector-curvature="0" />
    <path
       style="fill:#2347a3;fill-opacity:1;fill-rule:evenodd;stroke:none"
       d="m 678.46484,290.35937 0,25.22657 -5.625,0 0,-25.22657 -14.05859,0 0,-4.49609 33.80469,0 0,4.49609 z m 0,0"
       id="path29"
       inkscape:connector-curvature="0" />
    <path
       style="fill:#2347a3;fill-opacity:1;fill-rule:evenodd;stroke:none"
       d="m 704.33203,285.86328 0,25.22656 21.85156,0 0,-25.22656 5.6211,0 0,22.69922 c 0,2.72266 -0.50782,4.57031 -1.53516,5.55078 -1.01172,0.98438 -2.9375,1.47266 -5.78125,1.47266 l -18.46484,0 c -2.81641,0 -4.73438,-0.48438 -5.77344,-1.45313 -1.02734,-0.96875 -1.53906,-2.82422 -1.53906,-5.57031 l 0,-22.69922 z m 0,0"
       id="path31"
       inkscape:connector-curvature="0" />
    <path
       style="fill:#2347a3;fill-opacity:1;fill-rule:evenodd;stroke:none"
       d="m 764.63281,290.21875 -15.84375,0 0,9.55859 15.84375,0 c 1.21875,0 2.0625,-0.21093 2.54297,-0.61718 0.43359,-0.4336 0.65234,-1.23047 0.65234,-2.39063 l 0,-3.54687 c 0,-1.09375 -0.22656,-1.86719 -0.68359,-2.32422 -0.45703,-0.45313 -1.29297,-0.67969 -2.51172,-0.67969 m -21.46875,25.36719 0,-29.72266 23.96875,0 c 2.19922,0 3.79297,0.45313 4.76563,1.36719 0.98437,0.91015 1.48437,2.37109 1.48437,4.3789 l 0,6.62891 c 0,1.99219 -0.48828,3.43359 -1.46094,4.33203 -0.97265,0.89844 -2.5664,1.35156 -4.78906,1.35156 l -3.9414,0 13.12109,11.66407 -7.52344,0 -11.86719,-11.66407 -8.13281,0 0,11.66407 z m 0,0"
       id="path33"
       inkscape:connector-curvature="0" />
    <path
       style="fill:#2347a3;fill-opacity:1;fill-rule:evenodd;stroke:none"
       d="m 780.30469,315.58594 17.21875,-29.72266 5.14843,0 17.63672,29.72266 -6.125,0.0117 -3.80468,-6.96485 -20.60938,0 -3.79687,6.97656 z m 11.78906,-11.2461 15.90625,0 -8.00781,-14.18359 z m 0,0"
       id="path35"
       inkscape:connector-curvature="0" />
    <path
       style="fill:#eb1923;fill-opacity:1;fill-rule:evenodd;stroke:none"
       d="m 228.66016,271.28125 7.60156,0 0,8.28516 -7.60156,0 z m 0,0"
       id="path37"
       inkscape:connector-curvature="0" />
    <path
       style="fill:#eb1923;fill-opacity:1;fill-rule:evenodd;stroke:none"
       d="m 92.582031,268.60937 7.621099,0 0,8.30079 -7.621099,0 z m 0,0"
       id="path39"
       inkscape:connector-curvature="0" />
    <path
       style="fill:#2347a3;fill-opacity:1;fill-rule:evenodd;stroke:none"
       d="m 104.07031,309.17187 c -2.72656,0 -5.57031,-0.10937 -7.957029,-0.10937 l -6.03125,0 6.03125,-3.41797 7.957029,-4.53906 13.9961,-7.83985 c -0.23047,5.57032 -1.48047,11.02735 -3.75391,15.90625 z m 0,13.86329 c -2.39062,2.16015 -5.117185,3.97265 -7.957029,5.5664 -2.28125,1.14063 -4.667969,2.16016 -7.171875,2.95313 -3.867187,1.24609 -7.960937,1.8164 -12.28125,1.8164 -1.140625,0 -2.277344,0 -3.296875,-0.11328 l 0.675781,-10.90625 14.902344,0.11719 7.171875,0.10547 8.414059,0 z m -37.308591,-41.13282 -12.515625,0 0.230468,-0.79297 7.621094,-27.71875 c 3.296875,-1.25 6.597656,-2.05078 10.238282,-2.38671 z m -8.53125,47.14844 c -1.253907,-0.67969 -2.5,-1.35937 -3.753907,-2.15234 -1.9375,-1.25 -3.871093,-2.61719 -5.574218,-4.20703 -1.59375,-1.47266 -3.074219,-2.95313 -4.324219,-4.65625 l 4.324219,-16.70313 1.703125,-6.47266 13.765625,0 z M 36.5,301.78516 c -0.796875,-3.0625 -1.25,-6.35547 -1.25,-9.76172 0,-9.66407 3.414062,-18.52735 8.984375,-25.57032 1.480469,-1.82031 2.964844,-3.40625 4.667969,-4.99218 1.359375,-1.25782 2.84375,-2.39453 4.320312,-3.41407 l -4.320312,11.35547 -4.667969,12.05078 z m 39.816406,-7.04297 19.796875,0 5.910159,0.11718 -5.910159,3.40625 -7.171875,4.19922 -14.332031,8.30078 z m 3.644532,-43.85157 c 3.070312,0.22657 6.140624,0.79297 8.980468,1.70704 2.503906,0.79296 4.890625,1.8125 7.171875,2.94921 2.839844,1.59375 5.566409,3.41407 7.957029,5.57032 6.14453,5.44922 10.69532,12.72265 12.74219,20.90234 -2.04687,-0.11719 -7.05078,-0.11719 -12.74219,-0.23047 l -15.128904,0 c -6.597656,0 -11.714844,0.11328 -11.714844,0.11328 z m 24.109372,5.33594 c -2.5039,-1.92969 -5.117185,-3.51562 -7.957029,-4.88672 -2.28125,-1.1289 -4.667969,-2.04297 -7.171875,-2.72265 -3.867187,-1.02735 -8.078125,-1.70703 -12.28125,-1.70703 -8.078125,0 -15.589844,2.16015 -22.183594,5.91406 -1.9375,1.1289 -3.871093,2.3789 -5.574218,3.74219 -1.59375,1.2539 -3.1875,2.61718 -4.667969,4.09375 -7.847656,8.17968 -12.738281,19.19921 -12.738281,31.36328 0,12.26953 4.890625,23.28515 12.738281,31.46875 1.480469,1.47265 3.074219,2.84375 4.667969,4.08593 1.703125,1.35938 3.636718,2.6211 5.574218,3.7461 6.59375,3.7539 14.105469,5.91015 22.183594,5.91015 4.203125,0 8.414063,-0.67968 12.28125,-1.69921 2.503906,-0.67969 4.890625,-1.58985 7.171875,-2.73438 2.839844,-1.35937 5.453129,-2.94531 7.957029,-4.87891 10.80469,-8.30078 17.7461,-21.25 17.7461,-35.89843 0,-14.55078 -6.94141,-27.50391 -17.7461,-35.79688"
       id="path41"
       inkscape:connector-curvature="0" />
  </g>
</svg>
